<?xml version="1.0" encoding="UTF-8" standalone="no"?>
<!-- Created with Inkscape (http://www.inkscape.org/) -->

<svg
   xmlns:dc="http://purl.org/dc/elements/1.1/"
   xmlns:cc="http://creativecommons.org/ns#"
   xmlns:rdf="http://www.w3.org/1999/02/22-rdf-syntax-ns#"
   xmlns:svg="http://www.w3.org/2000/svg"
   xmlns="http://www.w3.org/2000/svg"
   xmlns:sodipodi="http://sodipodi.sourceforge.net/DTD/sodipodi-0.dtd"
   xmlns:inkscape="http://www.inkscape.org/namespaces/inkscape"
   width="15"
   height="15"
   id="svg6212"
   version="1.1"
   inkscape:version="0.48.4 r9939"
   sodipodi:docname="New document 11">
  <defs
     id="defs6214" />
  <sodipodi:namedview
     id="base"
     pagecolor="#ffffff"
     bordercolor="#666666"
     borderopacity="1.0"
     inkscape:pageopacity="0.0"
     inkscape:pageshadow="2"
     inkscape:zoom="31.678384"
     inkscape:cx="12.982303"
     inkscape:cy="8.2688315"
     inkscape:document-units="px"
     inkscape:current-layer="layer1"
     showgrid="false"
     inkscape:window-width="1855"
     inkscape:window-height="1056"
     inkscape:window-x="1985"
     inkscape:window-y="24"
     inkscape:window-maximized="1" />
  <metadata
     id="metadata6217">
    <rdf:RDF>
      <cc:Work
         rdf:about="">
        <dc:format>image/svg+xml</dc:format>
        <dc:type
           rdf:resource="http://purl.org/dc/dcmitype/StillImage" />
        <dc:title></dc:title>
      </cc:Work>
    </rdf:RDF>
  </metadata>
  <g
     inkscape:label="Layer 1"
     inkscape:groupmode="layer"
     id="layer1"
     transform="translate(0,-1037.3622)">
    <g
       id="magnifier-left_1_"
       transform="translate(0,1037.3622)">
      <g
         id="Layer_1_2_">
        <path
           style="fill:#4b5a6a"
           inkscape:connector-curvature="0"
           d="M 14.7,12.7 11.3,9.3 C 11.9,8.4 12.2,7.3 12.2,6.1 12.2,2.7 9.5,0 6.1,0 2.7,0 0,2.7 0,6.1 c 0,3.4 2.7,6.1 6.1,6.1 1.2,0 2.3,-0.3 3.2,-0.9 l 3.4,3.4 c 0.4,0.4 1,0.4 1.3,0 L 14.7,14 c 0.4,-0.3 0.4,-0.9 0,-1.3 l 0,0 z M 3.1,9.1 C 2.3,8.3 1.9,7.2 1.9,6.1 1.9,5 2.3,3.9 3.1,3.1 3.9,2.3 5,1.9 6.1,1.9 c 1.1,0 2.2,0.4 3,1.2 0.8,0.8 1.2,1.9 1.2,3 0,1.1 -0.4,2.2 -1.2,3 -0.8,0.8 -1.9,1.2 -3,1.2 -1.1,0 -2.2,-0.4 -3,-1.2 l 0,0 z"
           class="st0"
           id="Shape_3_" />
      </g>
    </g>
  </g>
</svg>
